<svg width="21" height="22" viewBox="0 0 21 22" fill="none" xmlns="http://www.w3.org/2000/svg">
<path d="M10.0494 7.57798e-09C10.9513 -5.90434e-05 11.819 0.344997 12.4745 0.964384C13.1301 1.58377 13.5238 2.43053 13.5748 3.33096L13.5802 3.53086H19.284C19.4904 3.53093 19.6891 3.60935 19.84 3.75029C19.9908 3.89123 20.0826 4.08418 20.0966 4.29014C20.1107 4.49611 20.0461 4.69973 19.9158 4.85988C19.7855 5.02003 19.5993 5.12475 19.3948 5.15289L19.284 5.16049H18.4192L17.0285 19.3057C16.9589 20.0109 16.6408 20.6684 16.1311 21.1607C15.6215 21.653 14.9534 21.9482 14.2462 21.9935L14.055 22H6.04375C5.33482 22 4.649 21.7479 4.10885 21.2887C3.56869 20.8296 3.20941 20.1933 3.09521 19.4936L3.07022 19.3046L1.67852 5.16049H0.814815C0.617915 5.16049 0.427678 5.08918 0.279285 4.95976C0.130893 4.83034 0.0343833 4.65156 0.00760491 4.45649L0 4.34568C8.3034e-06 4.14878 0.0713155 3.95854 0.200735 3.81015C0.330154 3.66176 0.508929 3.56525 0.704 3.53847L0.814815 3.53086H6.51852C6.51852 2.59442 6.89052 1.69633 7.55269 1.03417C8.21485 0.372001 9.11294 7.57798e-09 10.0494 7.57798e-09V7.57798e-09ZM16.7819 5.16049H3.31575L4.69225 19.1449C4.72273 19.4569 4.86023 19.7488 5.08143 19.971C5.30262 20.1932 5.59388 20.332 5.90578 20.3639L6.04375 20.3704H14.055C14.7069 20.3704 15.2599 19.9086 15.3859 19.2818L15.4076 19.1449L16.7808 5.16049H16.7819ZM11.9506 8.14815C12.1475 8.14816 12.3378 8.21946 12.4861 8.34888C12.6345 8.4783 12.731 8.65708 12.7578 8.85215L12.7654 8.96296V16.5679C12.7654 16.7743 12.6869 16.9731 12.546 17.1239C12.4051 17.2748 12.2121 17.3665 12.0062 17.3806C11.8002 17.3946 11.5966 17.33 11.4364 17.1997C11.2763 17.0694 11.1715 16.8832 11.1434 16.6787L11.1358 16.5679V8.96296C11.1358 8.74686 11.2216 8.53961 11.3745 8.3868C11.5273 8.23399 11.7345 8.14815 11.9506 8.14815ZM8.14815 8.14815C8.34505 8.14816 8.53529 8.21946 8.68368 8.34888C8.83207 8.4783 8.92858 8.65708 8.95536 8.85215L8.96296 8.96296V16.5679C8.9629 16.7743 8.88448 16.9731 8.74354 17.1239C8.6026 17.2748 8.40965 17.3665 8.20369 17.3806C7.99772 17.3946 7.79409 17.33 7.63395 17.1997C7.4738 17.0694 7.36908 16.8832 7.34094 16.6787L7.33333 16.5679V8.96296C7.33333 8.74686 7.41918 8.53961 7.57199 8.3868C7.7248 8.23399 7.93205 8.14815 8.14815 8.14815ZM10.0494 1.62963C9.57224 1.62965 9.11254 1.80907 8.76155 2.13229C8.41056 2.45551 8.19393 2.89889 8.15467 3.37442L8.14815 3.53086H11.9506C11.9506 3.02663 11.7503 2.54304 11.3938 2.18649C11.0372 1.82994 10.5536 1.62963 10.0494 1.62963Z" fill="#B43535"/>
</svg>
