<svg width="21" height="20" viewBox="0 0 21 20" fill="none" xmlns="http://www.w3.org/2000/svg">
<path fill-rule="evenodd" clip-rule="evenodd" d="M1.46207 2.71073C1.9606 2.2122 2.63676 1.93213 3.34179 1.93213H9.7174C10.1795 1.93213 10.5541 2.30674 10.5541 2.76884C10.5541 3.23094 10.1795 3.60555 9.7174 3.60555H3.34179C3.08058 3.60555 2.83006 3.70931 2.64536 3.89402C2.46066 4.07872 2.35689 4.32923 2.35689 4.59044V17.3417C2.35689 17.6029 2.46066 17.8534 2.64536 18.0381C2.83006 18.2228 3.08058 18.3266 3.34179 18.3266H16.093C16.3542 18.3266 16.6047 18.2228 16.7894 18.0381C16.9741 17.8534 17.0779 17.6029 17.0779 17.3417V10.9661C17.0779 10.504 17.4525 10.1293 17.9146 10.1293C18.3767 10.1293 18.7513 10.504 18.7513 10.9661V17.3417C18.7513 18.0467 18.4713 18.7229 17.9727 19.2214C17.4742 19.7199 16.798 20 16.093 20H3.34179C2.63676 20 1.9606 19.7199 1.46207 19.2214C0.963543 18.7229 0.683472 18.0467 0.683472 17.3417V4.59044C0.683472 3.88541 0.963543 3.20926 1.46207 2.71073Z" fill="#437B30"/>
<path fill-rule="evenodd" clip-rule="evenodd" d="M17.9145 1.67342C17.624 1.67342 17.3454 1.78883 17.14 1.99425L8.65124 10.483L8.13487 12.5485L10.2004 12.0321L18.6891 3.54337C18.8945 3.33795 19.0099 3.05933 19.0099 2.76881C19.0099 2.4783 18.8945 2.19968 18.6891 1.99425C18.4837 1.78883 18.2051 1.67342 17.9145 1.67342ZM15.9567 0.810967C16.476 0.291713 17.1802 0 17.9145 0C18.6489 0 19.3531 0.291713 19.8724 0.810967C20.3916 1.33022 20.6834 2.03448 20.6834 2.76881C20.6834 3.50315 20.3916 4.20741 19.8724 4.72666L11.2198 13.3793C11.1125 13.4865 10.9782 13.5626 10.8311 13.5994L7.18785 14.5102C6.90272 14.5814 6.6011 14.4979 6.39328 14.2901C6.18546 14.0823 6.10191 13.7806 6.17319 13.4955L7.084 9.8523C7.12078 9.70518 7.19685 9.57082 7.30408 9.46359L15.9567 0.810967Z" fill="#437B30"/>
</svg>
