<svg width="320" height="169" viewBox="0 0 320 169" fill="none" xmlns="http://www.w3.org/2000/svg">
<path d="M156.82 100C210.898 100 213.568 145.018 209.896 169H192.371C197.045 149.927 199.281 110.518 156.82 110.518C114.36 110.518 105.914 149.927 108.752 169H92.2283C90.0585 145.018 102.743 100 156.82 100Z" fill="#437B30"/>
<path d="M157.18 100C103.102 100 100.432 145.018 104.104 169H121.629C116.955 149.927 114.719 110.518 157.18 110.518C199.64 110.518 208.086 149.927 205.248 169H221.772C223.941 145.018 211.257 100 157.18 100Z" fill="#F9FCF8"/>
<path d="M258.198 64.5C239.228 55.4381 226.219 43.7319 231.872 41.6621L252.869 42.7305L282.305 53.4442L295.198 75.5C292.864 78.7865 273.555 71.8358 258.198 64.5Z" fill="#437B30"/>
<path d="M303 71.5273L280 169H272.5L293.5 76.5274C293.5 71.5273 278 60.5273 266.5 54.0273C256.954 48.6315 239.5 41.5273 230.5 42.5273C245 24.0273 263.5 21.0273 282.5 29.5273C300.672 37.657 303.833 60.694 303 71.5273Z" fill="#F9FCF8"/>
</svg>
